<?xml version="1.0" encoding="UTF-8" standalone="no"?>
<svg
   width="26"
   height="26"
   viewBox="0 0 6.8791667 6.8791667"
   version="1.1"
   id="svg1"
   sodipodi:docname="max_toggled_hover-active.svg"
   inkscape:version="1.4.2 (ebf0e940d0, 2025-05-08)"
   xmlns:inkscape="http://www.inkscape.org/namespaces/inkscape"
   xmlns:sodipodi="http://sodipodi.sourceforge.net/DTD/sodipodi-0.dtd"
   xmlns="http://www.w3.org/2000/svg"
   xmlns:svg="http://www.w3.org/2000/svg">
  <sodipodi:namedview
     id="namedview1"
     pagecolor="#ffffff"
     bordercolor="#000000"
     borderopacity="0.25"
     inkscape:showpageshadow="2"
     inkscape:pageopacity="0.0"
     inkscape:pagecheckerboard="0"
     inkscape:deskcolor="#d1d1d1"
     inkscape:zoom="19.115385"
     inkscape:cx="13"
     inkscape:cy="13"
     inkscape:window-width="1366"
     inkscape:window-height="700"
     inkscape:window-x="0"
     inkscape:window-y="0"
     inkscape:window-maximized="1"
     inkscape:current-layer="layer1" />
  <defs
     id="defs1" />
  <g
     id="layer1">
    <rect
       style="fill:#ffd42a;fill-opacity:1;stroke:none;stroke-width:1.51988;stroke-dasharray:none;stroke-opacity:1;paint-order:fill markers stroke"
       id="rect14"
       width="6.8791671"
       height="3.6679661"
       x="-1.6799928e-10"
       y="1.5875"
       sodipodi:type="rect"
       rx="1.1976933"
       inkscape:transform-center-y="-0.027682789"
       inkscape:transform-center-x="0.013841382" />
    <path
       style="fill:#ffffff;stroke-width:1.00006"
       shape-rendering="crispEdges"
       d="m 2.5107265,2.1497396 c -0.1720215,0 -0.312039,0.139 -0.312039,0.312 v 1.875 c 0,0.174 0.1400175,0.313 0.312039,0.313 h 1.8752344 c 0.1730216,0 0.3130391,-0.139 0.3130391,-0.313 v -1.875 c 0,-0.173 -0.1400175,-0.312 -0.3130391,-0.312 z m 0.4690586,0.937 h 0.9381173 c 0.086011,0 0.1560195,0.07 0.1560195,0.157 v 0.625 c 0,0.086 -0.070009,0.156 -0.1560195,0.156 H 2.9797851 c -0.086011,0 -0.1560195,-0.07 -0.1560195,-0.156 v -0.625 c 0,-0.087 0.070009,-0.157 0.1560195,-0.157 z"
       id="path1" />
  </g>
</svg>
