<?xml version="1.0" encoding="UTF-8" standalone="no"?>
<svg
   width="26"
   height="26"
   viewBox="0 0 6.8791667 6.8791667"
   version="1.1"
   id="svg1"
   sodipodi:docname="max_hover-active.svg"
   inkscape:version="1.4.2 (ebf0e940d0, 2025-05-08)"
   xmlns:inkscape="http://www.inkscape.org/namespaces/inkscape"
   xmlns:sodipodi="http://sodipodi.sourceforge.net/DTD/sodipodi-0.dtd"
   xmlns="http://www.w3.org/2000/svg"
   xmlns:svg="http://www.w3.org/2000/svg">
  <sodipodi:namedview
     id="namedview1"
     pagecolor="#ffffff"
     bordercolor="#000000"
     borderopacity="0.25"
     inkscape:showpageshadow="2"
     inkscape:pageopacity="0.0"
     inkscape:pagecheckerboard="0"
     inkscape:deskcolor="#d1d1d1"
     inkscape:zoom="19.115385"
     inkscape:cx="13.026157"
     inkscape:cy="13"
     inkscape:window-width="1366"
     inkscape:window-height="706"
     inkscape:window-x="0"
     inkscape:window-y="0"
     inkscape:window-maximized="1"
     inkscape:current-layer="layer1" />
  <defs
     id="defs1" />
  <g
     id="layer1">
    <rect
       style="fill:#ffd42a;fill-opacity:1;stroke:none;stroke-width:1.51988;stroke-dasharray:none;stroke-opacity:1;paint-order:fill markers stroke"
       id="rect14"
       width="6.8791671"
       height="3.6679661"
       x="-1.6799928e-10"
       y="1.5875"
       sodipodi:type="rect"
       rx="1.1976933"
       inkscape:transform-center-y="-0.027682789"
       inkscape:transform-center-x="0.013841382" />
    <path
       style="fill:#ffffff"
       d="m 3.0546666,2.1166667 c 0,0 0,0.6250002 0.625,0.6250002 h 0.156 c 0.086,0 0.156,0.07 0.156,0.1559999 v 0.156 c 0,0.625 0.625,0.625 0.625,0.625 v -1.25 c 0,-0.173 -0.14,-0.3120001 -0.312,-0.3120001 z m -0.9379999,0.937 v 1.25 c 0,0.173 0.1389999,0.313 0.313,0.313 h 1.2499999 c 0,0 0,-0.625 -0.625,-0.625 H 2.8976667 c -0.086,10e-8 -0.156,-0.07 -0.156,-0.156 v -0.157 c -0.01,-0.582 -0.625,-0.625 -0.625,-0.625 z"
       id="path1"
       sodipodi:nodetypes="csssscssccsscssscc" />
  </g>
</svg>
